<svg width="2500" height="2500" viewBox="0 0 2500 2500" fill="none" xmlns="http://www.w3.org/2000/svg">
<g clip-path="url(#clip0_29_31)">
<path d="M2454.12 1249.92C2454.12 1914.96 1914.99 2454.05 1250.09 2454.05C584.976 2454.05 45.877 1914.96 45.877 1249.92C45.877 585.042 584.976 45.9062 1250.09 45.9062C1915.01 45.908 2454.12 585.042 2454.12 1249.92Z" fill="#00979D" stroke="#81C9CB" stroke-width="1.63687" stroke-miterlimit="10"/>
<path opacity="0.5" d="M2454.12 1250.93C2454.12 1915.95 1914.99 2455.06 1250.09 2455.06C584.976 2455.06 45.877 1915.93 45.877 1250.93C45.877 586.033 584.976 46.8994 1250.09 46.8994C1915.01 46.9275 2454.12 586.032 2454.12 1250.93Z" fill="url(#paint0_linear_29_31)" stroke="url(#paint1_linear_29_31)" stroke-width="1.7563" stroke-miterlimit="10"/>
<path d="M1709.9 1680.52C1687.23 1680.52 1664.02 1678.89 1641.18 1675.49C1449.78 1648.17 1321.8 1510.71 1250.12 1405.04C1178.2 1510.71 1050.23 1648.31 858.917 1675.59C836.153 1678.85 813.185 1680.48 790.188 1680.48C671.193 1680.48 559.484 1636.19 475.457 1555.78C390.629 1474.7 343.82 1365.9 343.82 1249.88C343.82 1133.72 390.628 1025.07 475.58 943.839C559.526 863.413 671.318 819.254 790.364 819.254C813.052 819.254 836.145 820.884 858.9 824.142C1050.22 851.426 1178.19 988.906 1250.1 1094.59C1321.8 988.906 1449.78 851.466 1641.16 824.142C1663.99 820.87 1687.08 819.254 1709.77 819.254C1828.77 819.254 1940.55 863.527 2024.49 943.839C2109.4 1025.07 2156.11 1133.72 2156.11 1249.88C2156.11 1365.9 2109.52 1474.7 2024.62 1555.78C1940.52 1636.19 1828.9 1680.52 1709.9 1680.52ZM1334.86 1249.92C1372.24 1321.11 1482.51 1498.75 1662.75 1524.57C1678.53 1526.74 1694.41 1527.94 1709.89 1527.94C1871.79 1527.94 2003.59 1403.24 2003.59 1249.88C2003.59 1096.52 1871.82 971.822 1709.77 971.822C1694.3 971.822 1678.42 972.927 1662.79 975.196C1482.51 1000.95 1372.24 1178.59 1334.86 1249.92ZM790.362 971.863C628.241 971.863 496.427 1096.56 496.427 1249.92C496.427 1403.26 628.187 1527.98 790.16 1527.98C805.707 1527.98 821.593 1526.78 837.368 1524.61C1017.62 1498.8 1127.85 1321.26 1165.25 1249.97C1127.95 1178.77 1017.61 1000.99 837.368 975.322C821.777 972.967 805.851 971.863 790.362 971.863Z" fill="white"/>
<path d="M667.38 1207.82H935.436V1294.2H667.38V1207.82ZM1830.25 1207.82H1739.5V1116.94H1652.83V1207.82H1562.12V1294.2H1652.83V1385.06H1739.5V1294.2H1830.25V1207.82Z" fill="white"/>
</g>
<defs>
<linearGradient id="paint0_linear_29_31" x1="45.877" y1="1250.98" x2="2454.12" y2="1250.98" gradientUnits="userSpaceOnUse">
<stop offset="0.117" stop-color="white" stop-opacity="0"/>
<stop offset="0.252" stop-color="#C0D1D3" stop-opacity="0.153"/>
<stop offset="0.387" stop-color="#91B3B7" stop-opacity="0.306"/>
<stop offset="0.52" stop-color="#6D9FA3" stop-opacity="0.457"/>
<stop offset="0.65" stop-color="#4D9195" stop-opacity="0.604"/>
<stop offset="0.776" stop-color="#30888B" stop-opacity="0.746"/>
<stop offset="0.895" stop-color="#148386" stop-opacity="0.881"/>
<stop offset="1" stop-color="#008184"/>
</linearGradient>
<linearGradient id="paint1_linear_29_31" x1="44.9988" y1="1250.98" x2="2455" y2="1250.98" gradientUnits="userSpaceOnUse">
<stop stop-color="white" stop-opacity="0"/>
<stop offset="0.153" stop-color="#C0D1D3" stop-opacity="0.153"/>
<stop offset="0.306" stop-color="#91B3B7" stop-opacity="0.306"/>
<stop offset="0.457" stop-color="#6D9FA3" stop-opacity="0.457"/>
<stop offset="0.604" stop-color="#4D9195" stop-opacity="0.604"/>
<stop offset="0.746" stop-color="#30888B" stop-opacity="0.746"/>
<stop offset="0.881" stop-color="#148386" stop-opacity="0.881"/>
<stop offset="1" stop-color="#008184"/>
</linearGradient>
<clipPath id="clip0_29_31">
<rect width="2410" height="2410.96" fill="white" transform="translate(45 45)"/>
</clipPath>
</defs>
</svg>
