<svg width="2500" height="2500" viewBox="0 0 2500 2500" fill="none" xmlns="http://www.w3.org/2000/svg">
<path d="M2357.26 735.343C2357.24 693.421 2348.28 656.376 2330.14 624.582C2312.33 593.318 2285.66 567.114 2249.88 546.395C1954.56 376.109 1658.94 206.343 1363.71 35.8822C1284.12 -10.0681 1206.95 -8.39291 1127.95 38.217C1010.4 107.542 421.871 444.721 246.498 546.3C174.274 588.11 139.13 652.097 139.113 735.265C139 1077.72 139.113 1420.17 139 1762.64C139.017 1803.64 147.602 1839.96 164.935 1871.28C182.754 1903.49 209.8 1930.41 246.402 1951.6C421.784 2053.18 1010.39 2390.33 1127.91 2459.68C1206.95 2506.31 1284.12 2507.98 1363.74 2462.01C1658.98 2291.54 1954.61 2121.78 2249.98 1951.5C2286.58 1930.32 2313.63 1903.38 2331.45 1871.19C2348.75 1839.88 2357.35 1803.55 2357.37 1762.54C2357.37 1762.54 2357.37 1077.81 2357.26 735.343Z" fill="#5C8DBC"/>
<path d="M1251.58 1245.61L164.936 1871.28C182.755 1903.49 209.801 1930.41 246.403 1951.6C421.785 2053.18 1010.39 2390.33 1127.91 2459.68C1206.95 2506.31 1284.12 2507.98 1363.74 2462.01C1658.98 2291.54 1954.61 2121.78 2249.98 1951.5C2286.58 1930.32 2313.63 1903.38 2331.45 1871.19L1251.58 1245.61Z" fill="#1A4674"/>
<path d="M929.729 1430.94C992.96 1541.33 1111.83 1615.78 1248.19 1615.78C1385.39 1615.78 1504.93 1540.38 1567.84 1428.82L1251.58 1245.61L929.729 1430.94Z" fill="#1A4674"/>
<path d="M2357.26 735.344C2357.24 693.421 2348.28 656.376 2330.14 624.582L1251.58 1245.61L2331.45 1871.19C2348.75 1839.88 2357.35 1803.55 2357.37 1762.54C2357.37 1762.54 2357.37 1077.81 2357.26 735.344Z" fill="#1B598E"/>
<path d="M2297.88 1290.33H2213.5V1374.73H2129.1V1290.33H2044.72V1205.96H2129.1V1121.57H2213.5V1205.96H2297.88V1290.33ZM1989.97 1290.33H1905.59V1374.73H1821.21V1290.33H1736.83V1205.96H1821.21V1121.57H1905.59V1205.96H1989.97V1290.33Z" fill="white"/>
<path d="M1567.84 1428.82C1504.93 1540.38 1385.39 1615.78 1248.19 1615.78C1111.83 1615.78 992.96 1541.33 929.729 1430.94C897.964 1375.55 881.282 1312.8 881.348 1248.95C881.348 1046.35 1045.59 882.117 1248.19 882.117C1383.67 882.117 1501.91 955.642 1565.46 1064.9L1886.09 880.268C1758.65 660.273 1520.71 512.267 1248.19 512.267C841.317 512.267 511.498 842.095 511.498 1248.95C511.498 1382.42 547.007 1507.59 609.066 1615.56C736.189 1836.72 974.802 1985.63 1248.19 1985.63C1522.07 1985.63 1761.06 1836.12 1888 1614.31L1567.84 1428.82Z" fill="white"/>
</svg>
