<svg width="2500" height="2500" viewBox="0 0 2500 2500" fill="none" xmlns="http://www.w3.org/2000/svg">
<g clip-path="url(#clip0_29_31)">
<path d="M367.527 2209.65L190 40.0723L2310.13 44.4322L2122.41 2209.65L1258.07 2459.93L367.527 2209.65Z" fill="#1B73BA"/>
<path d="M1258.07 2250.39V246.7L2131.15 249.607L1975.46 2042.31L1258.07 2250.39Z" fill="#1C88C7"/>
<path d="M1914.33 502.808H571.248L607.632 764.712H1244.97L617.822 1033.92L654.19 1287.1H1578.21L1544.73 1640.68L1231.87 1701.81L948.135 1629.06L926.301 1428.24H665.833L700.747 1845.88L1259.52 2001.57L1795.02 1831.33L1863.42 1014.99H1297.34L1914.32 758.899L1914.33 502.808Z" fill="white"/>
</g>
<defs>
<clipPath id="clip0_29_31">
<rect width="2120.13" height="2428" fill="white" transform="translate(190 36)"/>
</clipPath>
</defs>
</svg>
