<svg width="2500" height="2500" viewBox="0 0 2500 2500" fill="none" xmlns="http://www.w3.org/2000/svg">
<g clip-path="url(#clip0_29_31)">
<path d="M1249.72 1250.41C1249.72 1034.52 1424.75 858.606 1641.53 858.606C1857.41 858.606 2033.33 1033.63 2033.33 1250.41C2033.33 1466.3 1858.31 1642.22 1641.53 1642.22C1425.63 1642.22 1249.72 1466.3 1249.72 1250.41Z" fill="#1ABCFE"/>
<path d="M467 2033.14C467 1817.24 642.024 1641.33 858.804 1641.33H1250.61V2033.14C1250.61 2249.04 1075.59 2424.94 858.804 2424.94C642.024 2424.94 467 2249.92 467 2033.14Z" fill="#0ACF83"/>
<path d="M1249.72 75.8886V858.609H1641.53C1857.41 858.609 2033.33 683.585 2033.33 466.804C2033.33 250.912 1858.31 75 1641.53 75H1249.72V75.8886Z" fill="#FF7262"/>
<path d="M467 467.692C467 683.585 642.024 859.497 858.804 859.497H1250.61V75.8877H858.804C642.024 75.8877 467 250.911 467 467.692Z" fill="#F24E1E"/>
<path d="M467 1250.41C467 1466.3 642.024 1642.22 858.804 1642.22H1250.61V858.606H858.804C642.024 858.606 467 1034.52 467 1250.41Z" fill="#A259FF"/>
</g>
<defs>
<clipPath id="clip0_29_31">
<rect width="2500" height="2500" fill="white"/>
</clipPath>
</defs>
</svg>
