<svg width="1468" height="1468" viewBox="0 0 1468 1468" fill="none" xmlns="http://www.w3.org/2000/svg">
<path d="M733.254 781.324C733.254 661.547 830.357 563.951 950.627 563.951C1070.4 563.951 1168 661.054 1168 781.324C1168 901.101 1070.9 998.697 950.627 998.697C830.85 998.697 733.254 901.101 733.254 781.324Z" fill="#1ABCFE"/>
<path d="M299 1215.58C299 1095.8 396.103 998.206 516.373 998.206H733.746V1215.58C733.746 1335.36 636.643 1432.95 516.373 1432.95C396.103 1432.95 299 1335.85 299 1215.58Z" fill="#0ACF83"/>
<path d="M733.254 129.699V563.952H950.627C1070.4 563.952 1168 466.849 1168 346.579C1168 226.802 1070.9 129.206 950.627 129.206H733.254V129.699Z" fill="#FF7262"/>
<path d="M299 347.071C299 466.848 396.103 564.444 516.373 564.444H733.746V129.698H516.373C396.103 129.698 299 226.801 299 347.071Z" fill="#F24E1E"/>
<path d="M299 781.324C299 901.101 396.103 998.697 516.373 998.697H733.746V563.951H516.373C396.103 563.951 299 661.547 299 781.324Z" fill="#A259FF"/>
</svg>
