<svg width="2500" height="2500" viewBox="0 0 2500 2500" fill="none" xmlns="http://www.w3.org/2000/svg">
<path d="M1250.42 2393.82C1219.56 2393.84 1189.23 2385.72 1162.5 2370.29L882.729 2204.67C840.975 2181.3 861.321 2173.05 875.13 2168.23C919.536 2154.51 962.055 2135.29 1001.7 2111.03C1005.02 2109.49 1008.67 2108.83 1012.32 2109.1C1015.96 2109.37 1019.48 2110.57 1022.53 2112.58L1237.51 2240.29C1241.51 2242.41 1245.97 2243.52 1250.5 2243.52C1255.03 2243.52 1259.49 2242.41 1263.49 2240.29L2101.83 1756.41C2105.75 1754.06 2109 1750.73 2111.25 1746.75C2113.49 1742.77 2114.67 1738.27 2114.66 1733.7V765.77C2114.66 761.124 2113.47 756.556 2111.19 752.506C2108.92 748.456 2105.63 745.06 2101.67 742.646L1263.33 259.173C1259.38 256.946 1254.92 255.777 1250.38 255.777C1245.84 255.777 1241.38 256.946 1237.43 259.173L399.582 742.809C395.586 745.173 392.267 748.528 389.948 752.551C387.629 756.573 386.388 761.127 386.345 765.77V1733.29C386.357 1737.85 387.581 1742.33 389.893 1746.26C392.204 1750.2 395.52 1753.45 399.501 1755.68L629.43 1888.37C754.037 1950.63 830.353 1877.26 830.353 1803.56V848.296C830.353 845.077 830.987 841.889 832.219 838.915C833.451 835.941 835.256 833.239 837.533 830.963C839.809 828.686 842.511 826.881 845.485 825.649C848.459 824.417 851.647 823.783 854.866 823.783H961.088C967.589 823.783 973.824 826.366 978.421 830.963C983.018 835.56 985.6 841.795 985.6 848.296V1803.64C985.6 1969.92 895.067 2065.11 737.368 2065.11C669.335 2066.29 602.369 2048.1 544.289 2012.65L323.92 1886.25C297.167 1870.67 274.969 1848.34 259.542 1821.5C244.114 1794.66 235.997 1764.25 236.001 1733.29V765.77C235.921 734.763 244.004 704.282 259.437 677.39C274.87 650.497 297.109 628.14 323.92 612.565L1162.34 128.52C1189.34 113.744 1219.63 106 1250.42 106C1281.2 106 1311.49 113.744 1338.5 128.52L2176.84 612.565C2203.59 628.114 2225.79 650.406 2241.23 677.217C2256.67 704.029 2264.81 734.421 2264.84 765.361V1733.29C2264.79 1764.25 2256.65 1794.65 2241.21 1821.49C2225.77 1848.32 2203.58 1870.65 2176.84 1886.25L1338.5 2370.29C1311.72 2385.74 1281.34 2393.86 1250.42 2393.82Z" fill="#00D486"/>
<path d="M1091.41 1409.47C1091.41 1402.97 1094 1396.74 1098.59 1392.14C1103.19 1387.54 1109.43 1384.96 1115.93 1384.96H1224.35C1230.15 1384.98 1235.75 1387.05 1240.16 1390.8C1244.57 1394.56 1247.51 1399.76 1248.46 1405.47C1264.8 1515.86 1313.83 1571.5 1535.5 1571.5C1712.08 1571.5 1787.33 1531.55 1787.33 1437.83C1787.33 1383.82 1766 1343.7 1491.54 1316.82C1262.1 1294.1 1120.26 1243.28 1120.26 1059.92C1120.26 890.785 1262.84 789.874 1501.84 789.874C1770.42 789.874 1903.36 883.104 1920.19 1083.13C1920.45 1086.47 1920.02 1089.82 1918.93 1092.99C1917.84 1096.16 1916.11 1099.07 1913.85 1101.54C1911.59 1104.01 1908.85 1106 1905.79 1107.37C1902.74 1108.74 1899.43 1109.47 1896.09 1109.52H1786.92C1781.45 1109.44 1776.15 1107.54 1771.89 1104.1C1767.62 1100.66 1764.63 1095.9 1763.39 1090.56C1737.32 974.455 1673.51 937.359 1501.92 937.359C1309.09 937.359 1286.7 1004.52 1286.7 1054.86C1286.7 1115.81 1313.17 1133.62 1573.5 1168.02C1831.13 1202.1 1953.53 1250.31 1953.53 1431.37C1953.53 1614.07 1801.22 1718.66 1535.59 1718.66C1168.3 1719.15 1091.41 1550.75 1091.41 1409.47Z" fill="#00D486"/>
</svg>
