<svg width="2500" height="2500" viewBox="0 0 2500 2500" fill="none" xmlns="http://www.w3.org/2000/svg">
<g clip-path="url(#clip0_29_31)">
<path d="M1250 533C931.184 533 731.935 692.364 652.223 1011.06C771.791 851.697 911.271 791.958 1070.66 831.784C1161.62 854.508 1226.62 920.496 1298.59 993.51C1415.79 1112.45 1551.45 1250.11 1847.78 1250.11C2166.57 1250.11 2365.85 1090.74 2445.53 772.016C2325.99 931.379 2186.51 991.148 2027.09 951.322C1936.16 928.599 1871.16 862.611 1799.19 789.596C1681.99 670.657 1546.3 533 1250 533ZM652.223 1250.11C333.436 1250.11 134.156 1409.47 54.4746 1728.2C174.012 1568.83 313.493 1509.07 472.916 1548.92C563.84 1571.67 628.842 1637.63 700.809 1710.62C818.015 1829.56 953.698 1967.24 1250 1967.24C1568.82 1967.24 1768.07 1807.88 1847.78 1489.15C1728.21 1648.52 1588.73 1708.28 1429.34 1668.43C1338.38 1645.74 1273.38 1579.72 1201.41 1506.73C1084.21 1387.79 948.556 1250.11 652.223 1250.11Z" fill="#06B6D4"/>
</g>
<defs>
<clipPath id="clip0_29_31">
<rect width="2392" height="1434.24" fill="white" transform="translate(54 533)"/>
</clipPath>
</defs>
</svg>
