<svg width="2500" height="2500" viewBox="0 0 2500 2500" fill="none" xmlns="http://www.w3.org/2000/svg">
<path d="M1405.35 799.249C1361.17 822.427 1344.68 861.566 1344.68 969.709C1344.68 969.709 1367.09 948.056 1400.25 935.985C1420.53 928.369 1439.66 917.983 1457.09 905.122C1494.46 877.744 1500.24 842.463 1500.24 783.04C1500.24 783.04 1439.33 781.391 1405.35 799.218M1075.79 916.633L947.795 1415.04L841.3 1007.17C830.94 963.798 812.242 910.193 782.655 873.917C744.979 827.716 668.382 824.823 660.262 824.823C652.08 824.823 575.483 827.716 537.838 873.917C508.251 910.193 489.553 963.829 479.162 1007.17L372.698 1415.1L244.705 916.633C244.705 916.633 233.38 862.032 194.74 827.779C132.019 772.244 38 784.098 38 784.098L283.159 1715.61C283.159 1715.61 364.049 1721.52 404.494 1700.74C457.632 1673.51 482.926 1652.51 515.127 1525.77C543.811 1412.77 623.986 1080.87 631.453 1057.23C635.186 1045.56 639.853 1017.65 660.262 1017.65C681.107 1017.65 685.4 1045.56 689.009 1057.23C696.382 1080.9 776.65 1412.77 805.366 1525.77C837.536 1652.51 862.86 1673.51 915.999 1700.74C956.444 1721.49 1037.33 1715.61 1037.33 1715.61L1282.46 784.129C1282.46 784.129 1188.47 772.244 1125.75 827.779C1087.08 862.001 1075.79 916.633 1075.79 916.633ZM1500.15 938.598C1500.15 938.598 1485.84 962.336 1453.26 981.905C1432.29 994.505 1412.2 1003 1390.64 1014.11C1354.48 1032.71 1344.68 1053.46 1344.68 1085.1V1714.92C1344.68 1714.92 1402.37 1722.73 1440.1 1702.11C1488.64 1675.54 1499.81 1649.9 1500.24 1534.51V972.198H1500.15V938.598ZM2143.75 1249.93L2461.4 788.018C2461.4 788.018 2327.37 765.711 2260.98 824.792C2218.51 862.592 2170.98 930.571 2170.98 930.571L2054.12 1095.31C2048.46 1103.86 2040.99 1113.2 2029.17 1113.2C2017.35 1113.2 2009.88 1103.86 2004.25 1095.31L1887.33 930.571C1887.33 930.571 1839.86 862.592 1797.36 824.792C1731 765.68 1596.91 788.018 1596.91 788.018L1914.55 1249.93L1597.71 1710.38C1597.71 1710.38 1737.37 1727.65 1803.77 1668.57C1846.23 1630.74 1887.33 1569.32 1887.33 1569.32L2004.25 1404.59C2009.85 1396.03 2017.32 1386.7 2029.17 1386.7C2040.99 1386.7 2048.46 1396.03 2054.12 1404.59L2170.98 1569.29C2170.98 1569.29 2214.53 1630.74 2257 1668.57C2323.39 1727.68 2460.56 1710.41 2460.56 1710.41L2143.75 1249.96V1249.93Z" fill="black"/>
</svg>
