<svg width="2500" height="2500" viewBox="0 0 2500 2500" fill="none" xmlns="http://www.w3.org/2000/svg">
<path d="M2277.14 774C2277.93 738.172 2269.3 702.764 2252.11 671.319C2234.29 640.922 2208.61 615.892 2177.77 598.865C1904.33 440.986 1630.79 283.327 1357.16 125.888C1283.48 83.2855 1212.07 84.7969 1138.86 128.061C1030.04 192.013 485.08 504.591 322.698 598.771C255.818 637.501 223.323 696.824 223.323 773.905V1726.09C222.633 1761.16 230.925 1795.83 247.411 1826.79C265.234 1858.11 291.393 1883.88 322.982 1901.23C485.364 1995.69 1030.42 2307.89 1139.24 2372.13C1212.45 2415.39 1283.86 2416.9 1357.64 2374.3C1631.01 2216.36 1904.55 2058.64 2178.24 1901.13C2209.83 1883.79 2235.99 1858.02 2253.81 1826.7C2270.29 1795.74 2278.59 1761.07 2277.9 1726V774H2277.14Z" fill="#004482"/>
<path d="M2277.33 1726.09C2278.04 1761.17 2269.75 1795.84 2253.24 1826.79C2249.19 1834.16 2244.61 1841.24 2239.54 1847.95L1250.23 1250L2177.76 598.865C2208.58 615.898 2234.23 640.929 2252.01 671.318C2269.28 702.739 2277.94 738.158 2277.14 774C2277.33 1091.4 2277.33 1726.09 2277.33 1726.09Z" fill="#00599C"/>
<path d="M2252.01 671.319L247.127 1826.79C230.714 1795.84 222.487 1761.21 223.228 1726.19V773.906C223.228 696.824 255.817 637.501 322.603 598.771C485.079 504.592 1030.04 192.013 1138.95 127.873C1211.97 84.6084 1283.48 83.097 1357.16 125.7C1630.54 283.642 1904.07 441.364 2177.76 598.866C2208.58 615.899 2234.23 640.929 2252.01 671.319Z" fill="#659AD2"/>
<path d="M1289.91 1634.65C1222.4 1634.75 1156.1 1616.71 1097.94 1582.43C1039.78 1548.15 991.898 1498.89 959.285 1439.78C955.947 1433.86 952.798 1427.81 949.839 1421.64C909.6 1338.54 901.233 1243.56 926.322 1154.7C951.411 1065.84 1008.21 989.269 1085.97 939.481C1163.73 889.694 1257.05 870.15 1348.26 884.551C1439.46 898.951 1522.22 946.297 1580.85 1017.62C1585.86 1023.67 1590.3 1030 1595.31 1036.51C1597.57 1039.63 1599.84 1042.75 1601.92 1045.96L1933.2 855.144C1925.14 842.171 1916.7 829.576 1907.88 817.359C1903.26 810.841 1898.44 804.607 1893.9 798.466C1778.76 648.882 1611.74 547.875 1425.79 515.368C1239.84 482.86 1048.46 521.213 889.396 622.861C730.331 724.508 615.13 882.072 566.515 1064.47C517.9 1246.88 539.4 1440.87 626.775 1608.2C629.986 1614.25 633.293 1620.2 636.221 1626.15C700.392 1739.37 792.743 1834.08 904.312 1901.08C1015.88 1968.08 1142.88 2005.09 1272.97 2008.53C1403.07 2011.98 1531.84 1981.72 1646.79 1920.72C1761.75 1859.71 1858.98 1770.02 1929.04 1660.35L1605.13 1464.53C1570.84 1516.82 1524.06 1559.75 1469.03 1589.45C1414 1619.15 1352.44 1634.69 1289.91 1634.65Z" fill="white"/>
</svg>
