<svg width="2500" height="2500" viewBox="0 0 2500 2500" fill="none" xmlns="http://www.w3.org/2000/svg">
<path d="M2316.25 1151.28L1348.7 183.791C1293.02 128.07 1202.64 128.07 1146.89 183.791L945.973 384.706L1200.84 639.577C1260.07 619.563 1327.99 632.989 1375.2 680.201C1422.64 727.717 1435.97 796.215 1415.47 855.632L1661.1 1101.27C1720.52 1080.79 1789.09 1094.04 1836.55 1141.58C1902.89 1207.89 1902.89 1315.36 1836.55 1381.71C1770.2 1448.07 1662.73 1448.07 1596.35 1381.71C1546.45 1331.76 1534.12 1258.48 1559.38 1197.02L1330.32 967.949L1330.29 1570.76C1346.9 1578.97 1362.06 1589.81 1375.2 1602.87C1441.53 1669.18 1441.53 1776.66 1375.2 1843.06C1308.85 1909.39 1201.33 1909.39 1135.07 1843.06C1068.74 1776.66 1068.74 1669.19 1135.07 1602.88C1150.97 1586.98 1169.86 1574.38 1190.65 1565.82V957.397C1169.83 948.896 1150.93 936.293 1135.07 920.339C1084.81 870.149 1072.73 796.405 1098.48 734.694L847.238 483.424L183.81 1146.81C128.063 1202.58 128.063 1292.96 183.81 1348.69L1151.37 2316.2C1207.08 2371.93 1297.43 2371.93 1353.2 2316.2L2316.24 1353.19C2371.97 1297.44 2371.98 1207 2316.25 1151.28Z" fill="#DE4C36"/>
</svg>
