<svg width="2500" height="2500" viewBox="0 0 2500 2500" fill="none" xmlns="http://www.w3.org/2000/svg">
<g clip-path="url(#clip0_29_31)">
<path d="M1828.79 1927.54H1819.95V1922.59H1843.77V1927.54H1834.98V1952.24H1828.79V1927.54ZM1876.31 1928.83H1876.17L1867.4 1952.25H1863.39L1854.68 1928.83H1854.57V1952.25H1848.74V1922.6H1857.32L1865.4 1943.59L1873.45 1922.6H1882V1952.25H1876.31L1876.31 1928.83Z" fill="#E76F00"/>
<path d="M1036.57 1321.2C1036.57 1321.2 975.001 1357 1080.39 1369.12C1208.07 1383.69 1273.32 1381.6 1414.02 1354.97C1414.02 1354.97 1451.02 1378.16 1502.68 1398.25C1187.26 1533.43 788.832 1390.42 1036.57 1321.2ZM998.031 1144.8C998.031 1144.8 928.973 1195.91 1034.44 1206.82C1170.83 1220.89 1278.54 1222.04 1464.92 1186.16C1464.92 1186.16 1490.7 1212.29 1531.23 1226.58C1149.88 1338.1 725.115 1235.38 998.031 1144.8Z" fill="#5382A1"/>
<path d="M1322.95 845.559C1400.67 935.037 1302.54 1015.56 1302.54 1015.56C1302.54 1015.56 1499.87 913.688 1409.24 786.119C1324.6 667.149 1259.69 608.044 1611.09 404.243C1611.09 404.239 1059.5 542 1322.95 845.559Z" fill="#E76F00"/>
<path d="M1740.11 1451.68C1740.11 1451.68 1785.68 1489.23 1689.93 1518.27C1507.87 1573.42 932.174 1590.07 772.248 1520.47C714.758 1495.45 822.567 1460.75 856.48 1453.46C891.847 1445.79 912.059 1447.22 912.059 1447.22C848.124 1402.18 498.815 1535.65 734.626 1573.88C1377.72 1678.17 1906.93 1526.92 1740.11 1451.68ZM1066.18 962.023C1066.18 962.023 773.347 1031.58 962.482 1056.83C1042.34 1067.53 1201.54 1065.11 1349.82 1052.68C1471.01 1042.46 1592.7 1020.73 1592.7 1020.73C1592.7 1020.73 1549.97 1039.03 1519.05 1060.13C1221.68 1138.35 647.22 1101.96 812.601 1021.96C952.464 954.354 1066.18 962.023 1066.18 962.023ZM1591.5 1255.65C1893.79 1098.57 1754.02 947.614 1656.46 967.955C1632.55 972.932 1621.89 977.245 1621.89 977.245C1621.89 977.245 1630.77 963.339 1647.72 957.32C1840.71 889.469 1989.14 1157.44 1585.42 1263.58C1585.42 1263.58 1590.1 1259.4 1591.5 1255.65Z" fill="#5382A1"/>
<path d="M1409.24 75.1533C1409.24 75.1533 1576.66 242.619 1250.46 500.144C988.882 706.716 1190.81 824.501 1250.35 959.078C1097.67 821.313 985.616 700.046 1060.79 587.178C1171.12 421.497 1476.79 341.169 1409.24 75.1533Z" fill="#E76F00"/>
<path d="M1095.89 1681.31C1386.05 1699.88 1831.62 1671 1842.17 1533.71C1842.17 1533.71 1821.89 1585.76 1602.37 1627.09C1354.72 1673.7 1049.26 1668.26 868.093 1638.39C868.101 1638.38 905.184 1669.08 1095.89 1681.31Z" fill="#5382A1"/>
<path d="M1048.33 2205.93C1020.96 2229.67 992.052 2243 966.108 2243C929.077 2243 909.07 2220.79 909.07 2185.18C909.07 2146.65 930.51 2118.49 1016.51 2118.49H1048.33L1048.33 2205.93ZM1123.86 2291.15V2027.36C1123.86 1959.97 1085.43 1915.51 992.764 1915.51C938.666 1915.51 891.278 1928.86 852.762 1945.9L863.879 1992.59C894.205 1981.46 933.459 1971.1 971.988 1971.1C1025.37 1971.1 1048.33 1992.59 1048.33 2037.03V2070.37H1021.69C891.994 2070.37 833.489 2120.72 833.489 2196.28C833.489 2261.5 872.044 2298.57 944.637 2298.57C991.3 2298.57 1026.13 2279.3 1058.7 2251.11L1064.61 2291.15L1123.86 2291.15ZM1375.93 2291.15H1281.73L1168.36 1922.19H1250.63L1320.97 2148.87L1336.61 2217.05C1372.2 2118.48 1397.37 2018.47 1409.96 1922.19H1489.99C1468.54 2043.68 1429.96 2177.04 1375.93 2291.15ZM1737.31 2205.93C1709.88 2229.67 1680.93 2243 1654.98 2243C1618.01 2243 1597.95 2220.79 1597.95 2185.18C1597.95 2146.65 1619.44 2118.49 1705.43 2118.49H1737.31V2205.93ZM1812.83 2291.15V2027.36C1812.83 1959.97 1774.3 1915.51 1681.74 1915.51C1627.61 1915.51 1580.2 1928.86 1541.7 1945.9L1552.81 1992.59C1583.14 1981.46 1622.47 1971.1 1660.97 1971.1C1714.31 1971.1 1737.31 1992.59 1737.31 2037.03V2070.37H1710.62C1580.89 2070.37 1522.4 2120.72 1522.4 2196.28C1522.4 2261.5 1560.93 2298.57 1633.51 2298.57C1680.2 2298.57 1715.02 2279.3 1747.63 2251.11L1753.57 2291.15L1812.83 2291.15ZM750.672 2353.8C729.141 2385.24 694.364 2410.11 656.291 2424.18L619 2380.29C647.979 2365.42 672.833 2341.41 684.38 2319.04C694.369 2299.15 698.503 2273.51 698.503 2212.19V1790.97H778.748V2206.42C778.744 2288.39 772.191 2321.51 750.672 2353.8Z" fill="#E76F00"/>
</g>
<defs>
<clipPath id="clip0_29_31">
<rect width="1263" height="2349.33" fill="white" transform="translate(619 75)"/>
</clipPath>
</defs>
</svg>
