<svg width="2500" height="2500" viewBox="0 0 2500 2500" fill="none" xmlns="http://www.w3.org/2000/svg">
<g clip-path="url(#clip0_29_31)">
<path d="M447.514 2122.61L286 148.689L2214.9 152.656L2044.11 2122.61L1257.73 2350.31L447.514 2122.61Z" fill="#E9CA32"/>
<path d="M1257.73 2159.68V336.68L2052.06 339.324L1910.41 1970.35L1257.73 2159.68Z" fill="#FFDE25"/>
<path d="M1172.67 553.137H962.67V1766.48L799.336 1735.36V1572.03L604.891 1540.92V1906.48L1172.67 2054.26V553.137ZM1330.2 553.137H1911.56L1872.67 785.693H1552.14V1167.32H1872.67L1833.79 1937.59L1330.2 2054.26V1813.14L1670.45 1696.48L1690.1 1377.59L1330.2 1429.7V553.137Z" fill="white"/>
</g>
<defs>
<clipPath id="clip0_29_31">
<rect width="1928.9" height="2209" fill="white" transform="translate(286 145)"/>
</clipPath>
</defs>
</svg>
