<svg width="2500" height="2500" viewBox="0 0 2500 2500" fill="none" xmlns="http://www.w3.org/2000/svg">
<path d="M1239.99 86.6572C647.948 86.6572 684.914 343.402 684.914 343.402L685.572 609.398H1250.55V689.257H461.172C461.172 689.257 82.3242 646.291 82.3242 1243.66C82.3242 1841.04 412.992 1819.86 412.992 1819.86H610.334V1542.65C610.334 1542.65 599.695 1211.98 935.724 1211.98H1496.08C1496.08 1211.98 1810.9 1217.07 1810.9 907.711V396.212C1810.9 396.212 1858.72 86.6572 1239.99 86.6572ZM928.464 265.534C941.814 265.522 955.036 268.143 967.373 273.246C979.71 278.35 990.919 285.836 1000.36 295.276C1009.8 304.717 1017.29 315.926 1022.39 328.263C1027.49 340.6 1030.11 353.822 1030.1 367.173C1030.11 380.523 1027.49 393.745 1022.39 406.082C1017.29 418.419 1009.8 429.628 1000.36 439.069C990.919 448.509 979.71 455.995 967.373 461.099C955.036 466.202 941.814 468.823 928.464 468.811C915.113 468.823 901.891 466.202 889.554 461.099C877.217 455.995 866.008 448.509 856.568 439.069C847.127 429.628 839.641 418.419 834.537 406.082C829.434 393.745 826.813 380.523 826.825 367.173C826.813 353.822 829.434 340.6 834.537 328.263C839.641 315.926 847.127 304.717 856.568 295.276C866.008 285.836 877.217 278.35 889.554 273.246C901.891 268.143 915.113 265.522 928.464 265.534Z" fill="url(#paint0_linear_29_31)"/>
<path d="M1256.8 2406.67C1848.85 2406.67 1811.88 2149.92 1811.88 2149.92L1811.22 1883.94H1246.24V1804.08H2035.61C2035.61 1804.08 2414.46 1847.04 2414.46 1249.66C2414.46 652.282 2083.79 673.468 2083.79 673.468H1886.45V950.668C1886.45 950.668 1897.09 1281.34 1561.06 1281.34H1000.71C1000.71 1281.34 685.883 1276.25 685.883 1585.61V2097.12C685.883 2097.12 638.077 2406.67 1256.79 2406.67H1256.8ZM1568.33 2227.81C1554.98 2227.82 1541.76 2225.2 1529.42 2220.1C1517.08 2214.99 1505.88 2207.51 1496.43 2198.07C1486.99 2188.63 1479.51 2177.42 1474.4 2165.08C1469.3 2152.74 1466.68 2139.52 1466.69 2126.17C1466.68 2112.82 1469.3 2099.6 1474.4 2087.26C1479.5 2074.92 1486.99 2063.71 1496.43 2054.27C1505.87 2044.83 1517.08 2037.34 1529.42 2032.24C1541.76 2027.13 1554.98 2024.51 1568.33 2024.52C1581.68 2024.51 1594.9 2027.13 1607.24 2032.23C1619.58 2037.34 1630.79 2044.82 1640.23 2054.26C1649.67 2063.7 1657.15 2074.91 1662.26 2087.25C1667.36 2099.59 1669.98 2112.81 1669.97 2126.16C1669.98 2139.51 1667.36 2152.73 1662.26 2165.07C1657.15 2177.41 1649.67 2188.62 1640.23 2198.06C1630.79 2207.5 1619.58 2214.98 1607.24 2220.09C1594.9 2225.19 1581.68 2227.82 1568.33 2227.81Z" fill="url(#paint1_linear_29_31)"/>
<defs>
<linearGradient id="paint0_linear_29_31" x1="22494.1" y1="20953.8" x2="138068" y2="135374" gradientUnits="userSpaceOnUse">
<stop stop-color="#387EB8"/>
<stop offset="1" stop-color="#366994"/>
</linearGradient>
<linearGradient id="paint1_linear_29_31" x1="33765.7" y1="36342.8" x2="157878" y2="153671" gradientUnits="userSpaceOnUse">
<stop stop-color="#FFE052"/>
<stop offset="1" stop-color="#FFC331"/>
</linearGradient>
</defs>
</svg>
