<svg width="2500" height="2500" viewBox="0 0 2500 2500" fill="none" xmlns="http://www.w3.org/2000/svg">
<path d="M2264.38 1030.17C2264.38 894.643 2094.66 766.204 1834.44 686.555C1894.49 421.335 1867.8 210.326 1750.2 142.77C1723.09 126.923 1691.41 119.417 1656.79 119.417V212.411C1675.97 212.411 1691.41 216.165 1704.33 223.253C1761.04 255.78 1785.65 379.633 1766.46 538.932C1761.88 578.132 1754.38 619.415 1745.2 661.534C1663.46 641.517 1574.22 626.088 1480.39 616.08C1424.1 538.932 1365.72 468.874 1306.92 407.573C1442.86 281.218 1570.47 211.994 1657.21 211.994V119C1542.53 119 1392.41 200.735 1240.62 342.519C1088.82 201.568 938.697 120.668 824.021 120.668V213.662C910.341 213.662 1038.36 282.47 1174.31 407.99C1115.92 469.291 1057.54 538.932 1002.08 616.08C907.832 626.088 818.594 641.517 736.862 661.951C727.266 620.25 720.18 579.799 715.172 541.017C695.581 381.718 719.76 257.865 776.063 224.922C788.568 217.415 804.83 214.08 824.021 214.08V121.085C788.987 121.085 757.292 128.592 729.775 144.438C612.59 211.994 586.322 422.585 646.784 686.972C387.404 767.038 218.514 895.063 218.514 1030.17C218.514 1165.71 388.237 1294.15 648.453 1373.79C588.401 1639.02 615.089 1850.02 732.694 1917.58C759.801 1933.42 791.487 1940.92 826.52 1940.92C941.196 1940.92 1091.33 1859.19 1243.12 1717.41C1394.9 1858.36 1545.03 1939.27 1659.71 1939.27C1694.74 1939.27 1726.43 1931.76 1753.96 1915.91C1871.13 1848.35 1897.41 1637.76 1836.94 1373.38C2095.49 1293.73 2264.38 1165.29 2264.38 1030.17ZM1721.43 752.026C1706 805.824 1686.82 861.279 1665.13 916.743C1648.04 883.388 1630.1 850.024 1610.5 816.66C1591.32 783.302 1570.88 750.775 1550.45 719.082C1609.66 727.839 1666.8 738.682 1721.43 752.026ZM1530.43 1196.14C1497.91 1252.45 1464.55 1305.82 1429.94 1355.45C1367.8 1360.87 1304.84 1363.78 1241.45 1363.78C1178.48 1363.78 1115.51 1360.87 1053.79 1355.86C1019.18 1306.23 985.396 1253.28 952.871 1197.39C921.176 1142.77 892.409 1087.3 866.132 1031.43C891.989 975.545 921.176 919.662 952.461 865.037C984.986 808.743 1018.34 755.362 1052.95 705.737C1115.09 700.316 1178.06 697.397 1241.45 697.397C1304.42 697.397 1367.39 700.316 1429.1 705.32C1463.71 754.945 1497.5 807.904 1530.02 863.787C1561.72 918.412 1590.48 973.876 1616.76 1029.76C1590.48 1085.63 1561.72 1141.52 1530.43 1196.14ZM1665.13 1141.94C1687.02 1196.28 1706.23 1251.67 1722.68 1307.9C1668.05 1321.24 1610.5 1332.51 1550.87 1341.26C1571.3 1309.16 1591.73 1276.21 1610.92 1242.43C1630.1 1209.08 1648.04 1175.29 1665.13 1141.94ZM1242.28 1586.89C1203.49 1546.85 1164.71 1502.23 1126.35 1453.44C1163.88 1455.11 1202.24 1456.36 1241.03 1456.36C1280.23 1456.36 1319.01 1455.53 1356.96 1453.44C1321.17 1499.96 1282.88 1544.51 1242.28 1586.89ZM932.021 1341.26C872.808 1332.51 815.675 1321.66 761.05 1308.32C776.473 1254.53 795.664 1199.06 817.344 1143.6C834.446 1176.96 852.378 1210.33 871.969 1243.68C891.57 1277.04 911.59 1309.57 932.021 1341.26ZM1240.2 473.462C1278.98 513.494 1317.76 558.115 1356.12 606.905C1318.59 605.237 1280.23 603.987 1241.45 603.987C1202.24 603.987 1163.46 604.82 1125.52 606.905C1161.31 560.39 1199.59 515.844 1240.2 473.462ZM931.601 719.082C911.171 751.192 890.74 784.136 871.559 817.909C852.378 851.273 834.446 884.638 817.344 917.992C795.452 863.648 776.247 808.258 759.801 752.026C814.426 739.099 871.969 727.839 931.601 719.082ZM554.207 1241.18C406.587 1178.21 311.091 1095.65 311.091 1030.17C311.091 964.7 406.587 881.719 554.207 819.168C590.07 803.735 629.272 789.974 669.723 777.047C693.492 858.78 724.767 943.85 763.549 1031.01C725.187 1117.75 694.322 1202.4 670.973 1283.72C629.692 1270.79 590.49 1256.61 554.207 1241.18ZM778.562 1837.09C721.849 1804.57 697.241 1680.72 716.431 1521.41C721.019 1482.22 728.516 1440.93 737.692 1398.81C819.433 1418.83 908.671 1434.26 1002.5 1444.27C1058.79 1521.41 1117.17 1591.47 1175.98 1652.77C1040.03 1779.13 912.42 1848.35 825.681 1848.35C806.919 1847.94 791.076 1844.18 778.562 1837.09ZM1767.72 1519.33C1787.31 1678.63 1763.13 1802.48 1706.83 1835.42C1694.32 1842.93 1678.06 1846.27 1658.87 1846.27C1572.55 1846.27 1444.53 1777.46 1308.58 1651.94C1366.97 1590.64 1425.35 1521 1480.81 1443.85C1575.06 1433.84 1664.3 1418.41 1746.03 1397.98C1755.63 1440.1 1763.13 1480.55 1767.72 1519.33ZM1928.27 1241.18C1892.4 1256.61 1853.2 1270.38 1812.75 1283.3C1788.98 1201.57 1757.71 1116.5 1718.92 1029.34C1757.3 942.601 1788.15 857.95 1811.5 776.629C1852.79 789.557 1891.98 803.735 1928.69 819.168C2076.31 882.129 2171.8 964.7 2171.8 1030.17C2171.38 1095.65 2075.89 1178.63 1928.27 1241.18Z" fill="#61DAFB"/>
<path d="M1241.03 1220.75C1346.28 1220.75 1431.61 1135.43 1431.61 1030.17C1431.61 924.92 1346.28 839.598 1241.03 839.598C1135.78 839.598 1050.45 924.92 1050.45 1030.17C1050.45 1135.43 1135.78 1220.75 1241.03 1220.75ZM311.411 2269.05H248.501V2377.4H213V2109.57H301.662C331.829 2109.57 355.007 2116.44 371.194 2130.18C387.504 2143.91 395.659 2163.9 395.659 2190.14C395.659 2206.82 391.122 2221.35 382.047 2233.74C373.095 2246.13 360.587 2255.38 344.522 2261.51L407.432 2375.19V2377.4H369.539L311.411 2269.05ZM248.501 2240.18H302.766C320.303 2240.18 334.221 2235.63 344.522 2226.56C354.945 2217.49 360.157 2205.35 360.157 2190.14C360.157 2173.59 355.19 2160.9 345.258 2152.07C335.447 2143.24 321.222 2138.76 302.582 2138.64H248.501V2240.18ZM522.586 2381.08C495.604 2381.08 473.652 2372.25 456.729 2354.59C439.806 2336.81 431.344 2313.08 431.344 2283.41V2277.15C431.344 2257.41 435.085 2239.81 442.565 2224.36C450.168 2208.78 460.715 2196.64 474.204 2187.94C487.816 2179.11 502.532 2174.69 518.351 2174.69C544.229 2174.69 564.342 2183.21 578.684 2200.26C593.035 2217.3 600.206 2241.71 600.206 2273.47V2287.63H465.374C465.865 2307.26 471.568 2323.14 482.482 2335.28C493.518 2347.29 507.498 2353.3 524.423 2353.3C536.443 2353.3 546.616 2350.85 554.952 2345.95C563.298 2341.04 570.59 2334.54 576.847 2326.45L597.632 2342.64C580.95 2368.26 555.941 2381.08 522.586 2381.08ZM518.351 2202.65C504.617 2202.65 493.09 2207.68 483.769 2217.73C474.449 2227.67 468.686 2241.65 466.478 2259.67H566.179V2257.1C565.2 2239.81 560.538 2226.44 552.201 2216.99C543.856 2207.44 532.573 2202.65 518.351 2202.65ZM762.635 2377.4C760.667 2373.47 759.073 2366.49 757.851 2356.43C742.027 2372.86 723.144 2381.08 701.193 2381.08C681.574 2381.08 665.451 2375.56 652.816 2364.52C640.312 2353.36 634.055 2339.26 634.055 2322.22C634.055 2301.5 641.906 2285.43 657.6 2274.02C673.415 2262.49 695.617 2256.73 724.188 2256.73H757.301V2241.1C757.301 2229.2 753.739 2219.75 746.633 2212.77C739.518 2205.66 729.028 2202.1 715.171 2202.1C703.03 2202.1 692.857 2205.16 684.642 2211.3C676.427 2217.42 672.314 2224.85 672.314 2233.56H638.102C638.102 2223.62 641.598 2214.06 648.583 2204.85C655.698 2195.54 665.265 2188.18 677.285 2182.78C689.425 2177.39 702.723 2174.69 717.195 2174.69C740.134 2174.69 758.093 2180.45 771.092 2191.99C784.091 2203.39 790.833 2219.15 791.327 2239.25V2330.86C791.327 2349.14 793.658 2363.66 798.321 2374.45V2377.4H762.635ZM706.164 2351.47C716.831 2351.47 726.949 2348.71 736.516 2343.19C746.074 2337.67 753.002 2330.5 757.301 2321.67V2280.83H730.622C688.931 2280.83 668.081 2293.03 668.081 2317.43C668.081 2328.1 671.643 2336.45 678.749 2342.45C685.863 2348.46 695.002 2351.47 706.164 2351.47ZM924.504 2353.3C936.645 2353.3 947.257 2349.62 956.33 2342.26C965.403 2334.91 970.429 2325.71 971.408 2314.67H1003.61C1002.99 2326.08 999.065 2336.93 991.829 2347.23C984.593 2357.54 974.905 2365.75 962.764 2371.88C950.744 2378.02 937.997 2381.08 924.504 2381.08C897.406 2381.08 875.819 2372.07 859.753 2354.04C843.817 2335.89 835.844 2311.12 835.844 2279.72V2274.02C835.844 2254.65 839.397 2237.42 846.511 2222.34C853.626 2207.25 863.8 2195.54 877.05 2187.2C890.413 2178.86 906.172 2174.69 924.318 2174.69C946.641 2174.69 965.16 2181.37 979.875 2194.75C994.711 2208.11 1002.62 2225.46 1003.61 2246.8H971.408C970.429 2233.92 965.524 2223.37 956.693 2215.16C947.993 2206.82 937.195 2202.65 924.318 2202.65C907.03 2202.65 893.602 2208.9 884.034 2221.41C874.598 2233.8 869.87 2251.77 869.87 2275.31V2281.75C869.87 2304.68 874.598 2322.34 884.034 2334.72C893.48 2347.11 906.974 2353.3 924.504 2353.3ZM1088.03 2130.18V2178.37H1125.19V2204.68H1088.03V2328.1C1088.03 2336.07 1089.69 2342.08 1093 2346.12C1096.31 2350.05 1101.96 2352.02 1109.93 2352.02C1113.84 2352.02 1119.24 2351.28 1126.11 2349.81V2377.4C1117.15 2379.85 1108.45 2381.08 1099.99 2381.08C1084.79 2381.08 1073.32 2376.48 1065.59 2367.28C1057.87 2358.09 1054.01 2345.02 1054.01 2328.1V2204.68H1017.76V2178.37H1054.01V2130.18H1088.03ZM1469.73 2377.4H1434.22L1299.39 2171.01V2377.4H1263.89V2109.57H1299.39L1434.59 2316.88V2109.57H1469.73V2377.4ZM1649.99 2377.4C1648.03 2373.47 1646.43 2366.49 1645.21 2356.43C1629.39 2372.86 1610.5 2381.08 1588.55 2381.08C1568.93 2381.08 1552.8 2375.56 1540.18 2364.52C1527.67 2353.36 1521.41 2339.26 1521.41 2322.22C1521.41 2301.5 1529.26 2285.43 1544.96 2274.02C1560.77 2262.49 1582.98 2256.73 1611.55 2256.73H1644.66V2241.1C1644.66 2229.2 1641.1 2219.75 1633.98 2212.77C1626.88 2205.66 1616.39 2202.1 1602.53 2202.1C1590.39 2202.1 1580.22 2205.16 1572 2211.3C1563.79 2217.42 1559.67 2224.85 1559.67 2233.56H1525.46C1525.46 2223.62 1528.96 2214.06 1535.94 2204.85C1543.06 2195.54 1552.62 2188.18 1564.64 2182.78C1576.78 2177.39 1590.08 2174.69 1604.55 2174.69C1627.48 2174.69 1645.45 2180.45 1658.45 2191.99C1671.45 2203.39 1678.19 2219.15 1678.69 2239.25V2330.86C1678.69 2349.14 1681.02 2363.66 1685.68 2374.45V2377.4H1649.99ZM1593.52 2351.47C1604.19 2351.47 1614.31 2348.71 1623.88 2343.19C1633.43 2337.67 1640.36 2330.5 1644.66 2321.67V2280.83H1617.98C1576.29 2280.83 1555.44 2293.03 1555.44 2317.43C1555.44 2328.1 1559 2336.45 1566.11 2342.45C1573.22 2348.46 1582.36 2351.47 1593.52 2351.47ZM1778.2 2130.18V2178.37H1815.36V2204.68H1778.2V2328.1C1778.2 2336.07 1779.86 2342.08 1783.17 2346.12C1786.48 2350.05 1792.12 2352.02 1800.1 2352.02C1804.01 2352.02 1809.41 2351.28 1816.28 2349.81V2377.4C1807.32 2379.85 1798.62 2381.08 1790.16 2381.08C1774.96 2381.08 1763.49 2376.48 1755.76 2367.28C1748.03 2358.09 1744.17 2345.02 1744.17 2328.1V2204.68H1707.94V2178.37H1744.17V2130.18H1778.2ZM1892.25 2377.4H1858.22V2178.37H1892.25V2377.4ZM1855.46 2125.57C1855.46 2120.06 1857.12 2115.4 1860.43 2111.6C1863.86 2107.79 1868.88 2105.9 1875.51 2105.9C1882.14 2105.9 1887.16 2107.79 1890.59 2111.6C1894.02 2115.4 1895.74 2120.06 1895.74 2125.57C1895.74 2131.09 1894.02 2135.69 1890.59 2139.37C1887.16 2143.05 1882.14 2144.89 1875.51 2144.89C1868.88 2144.89 1863.86 2143.05 1860.43 2139.37C1857.12 2135.69 1855.46 2131.09 1855.46 2125.57ZM2012.55 2331.23L2061.84 2178.37H2096.62L2025.24 2377.4H1999.3L1927.2 2178.37H1961.96L2012.55 2331.23ZM2209.37 2381.08C2182.39 2381.08 2160.44 2372.25 2143.52 2354.59C2126.59 2336.81 2118.14 2313.08 2118.14 2283.41V2277.15C2118.14 2257.41 2121.88 2239.81 2129.35 2224.36C2136.95 2208.78 2147.5 2196.64 2160.99 2187.94C2174.61 2179.11 2189.32 2174.69 2205.14 2174.69C2231.01 2174.69 2251.13 2183.21 2265.48 2200.26C2279.82 2217.3 2287 2241.71 2287 2273.47V2287.63H2152.16C2152.66 2307.26 2158.35 2323.14 2169.27 2335.28C2180.31 2347.29 2194.29 2353.3 2211.21 2353.3C2223.23 2353.3 2233.41 2350.85 2241.75 2345.95C2250.08 2341.04 2257.38 2334.54 2263.64 2326.45L2284.43 2342.64C2267.74 2368.26 2242.73 2381.08 2209.37 2381.08ZM2205.14 2202.65C2191.41 2202.65 2179.88 2207.68 2170.56 2217.73C2161.24 2227.67 2155.47 2241.65 2153.27 2259.67H2252.96V2257.1C2251.99 2239.81 2247.32 2226.44 2238.99 2216.99C2230.65 2207.44 2219.37 2202.65 2205.14 2202.65Z" fill="#61DAFB"/>
</svg>
