<svg width="2500" height="2500" viewBox="0 0 2500 2500" fill="none" xmlns="http://www.w3.org/2000/svg">
<g clip-path="url(#clip0_29_31)">
<path d="M2151.37 1389.15C2063.97 1389.64 1988.28 1410.63 1924.81 1441.89C1901.37 1395.5 1877.93 1354.97 1874.03 1324.7C1869.63 1289.54 1864.26 1268.05 1869.63 1226.07C1875 1184.07 1899.41 1124.5 1899.41 1119.62C1898.92 1115.22 1894.04 1093.74 1843.75 1093.25C1793.46 1092.76 1750 1103.02 1745.12 1116.2C1740.23 1129.38 1730.47 1159.66 1724.12 1190.91C1715.33 1236.8 1623.54 1399.4 1571.29 1484.85C1554.2 1451.65 1539.55 1422.35 1536.62 1398.91C1532.23 1363.76 1526.85 1342.27 1532.23 1300.28C1537.6 1258.28 1562.01 1198.72 1562.01 1193.84C1561.52 1189.44 1556.64 1167.96 1506.35 1167.47C1456.06 1166.98 1412.6 1177.23 1407.72 1190.42C1402.84 1203.6 1397.47 1234.85 1386.72 1265.12C1376.47 1295.4 1254.39 1566.88 1222.66 1637.68C1206.54 1673.82 1192.39 1702.62 1182.13 1722.16C1171.88 1741.69 1181.64 1723.62 1180.66 1725.57C1171.88 1742.18 1166.99 1751.45 1166.99 1751.45V1751.95C1160.16 1764.15 1152.83 1775.87 1149.41 1775.87C1146.97 1775.87 1142.09 1743.15 1150.39 1698.24C1168.45 1603.99 1212.4 1457.02 1211.91 1451.65C1211.91 1449.21 1220.21 1423.33 1183.59 1410.15C1147.94 1396.97 1135.25 1418.94 1132.32 1418.94C1129.39 1418.94 1126.95 1426.75 1126.95 1426.75C1126.95 1426.75 1166.5 1261.23 1051.26 1261.23C978.999 1261.23 879.39 1339.84 830.074 1411.62C798.824 1428.71 732.417 1464.84 662.105 1503.42C635.249 1518.06 607.417 1533.69 581.05 1547.85L575.684 1541.98C436.035 1393.05 177.735 1287.59 188.477 1087.39C192.383 1014.64 217.774 822.742 684.576 590.32C1066.9 399.891 1373.05 452.137 1426.27 568.348C1501.95 734.363 1262.7 1042.96 865.24 1087.39C713.872 1104.48 634.278 1045.89 614.263 1023.91C593.267 1000.96 590.337 999.988 582.525 1004.38C569.829 1011.22 577.642 1031.73 582.525 1043.93C594.243 1074.7 643.072 1129.38 726.079 1156.73C798.828 1180.65 976.568 1193.84 1191.41 1110.83C1432.13 1017.57 1620.12 758.777 1564.95 542.469C1508.79 322.254 1143.56 249.988 798.345 372.547C592.774 445.789 370.118 560.047 209.961 709.949C19.5316 887.684 -10.7419 1042.96 1.95344 1107.41C46.3919 1337.39 363.282 1487.29 490.235 1598.13C483.887 1601.55 478.028 1604.96 472.657 1607.9C409.18 1639.14 167.481 1765.61 106.934 1899.4C38.5745 2050.76 117.676 2159.66 170.41 2174.3C333.496 2219.71 500.489 2138.17 590.821 2003.89C680.659 1869.62 669.922 1695.3 628.418 1615.71L626.949 1612.78L676.753 1583.48C708.985 1564.44 740.723 1546.86 768.55 1531.72C752.93 1574.2 741.695 1624.5 735.84 1697.74C729.004 1783.68 764.16 1895 810.547 1938.95C831.055 1957.99 855.469 1958.48 870.606 1958.48C924.317 1958.48 948.731 1914.04 975.586 1860.82C1008.79 1795.88 1038.09 1720.69 1038.09 1720.69C1038.09 1720.69 1001.47 1924.3 1101.56 1924.3C1138.18 1924.3 1174.8 1876.94 1191.41 1852.52V1853.01C1191.41 1853.01 1192.38 1851.55 1194.34 1848.13C1196.39 1845.1 1198.34 1842.01 1200.2 1838.86V1837.88C1214.84 1812.49 1247.56 1754.38 1296.39 1658.19C1359.37 1534.17 1419.92 1378.89 1419.92 1378.89C1419.92 1378.89 1425.78 1416.98 1443.85 1479.48C1454.59 1516.59 1478.02 1557.12 1496.09 1596.67C1481.44 1617.18 1472.65 1628.9 1472.65 1628.9L1473.14 1629.39C1461.43 1645.01 1448.24 1661.62 1434.57 1678.22C1384.77 1737.79 1325.2 1805.66 1317.38 1825.19C1308.11 1848.14 1310.06 1865.23 1328.13 1878.9C1341.31 1888.67 1364.75 1890.62 1389.65 1888.67C1434.57 1885.74 1465.82 1874.51 1481.45 1867.67C1505.86 1858.88 1533.69 1845.7 1560.55 1826.17C1609.38 1790.04 1639.16 1738.77 1636.23 1670.41C1634.77 1632.81 1622.56 1595.7 1607.42 1560.54C1611.82 1554.2 1616.22 1547.84 1620.61 1541.01C1697.75 1428.22 1757.32 1304.2 1757.32 1304.2C1757.32 1304.2 1763.18 1342.28 1781.25 1404.78C1790.52 1436.52 1809.08 1471.19 1825.68 1505.37C1753.42 1564.46 1708.01 1632.82 1692.38 1677.74C1663.57 1760.75 1686.04 1798.34 1728.52 1807.13C1747.55 1811.04 1774.9 1802.25 1795.41 1793.46C1820.8 1785.16 1851.56 1770.99 1879.88 1750C1928.71 1713.87 1975.59 1663.58 1973.14 1595.71C1971.68 1564.46 1963.38 1533.69 1952.15 1504.4C2013.67 1479.01 2093.26 1464.36 2194.34 1476.57C2411.62 1501.96 2454.59 1637.7 2446.29 1694.34C2437.99 1750.98 2392.58 1782.23 2377.44 1792C2362.3 1801.27 2357.42 1804.7 2358.89 1811.53C2360.84 1821.79 2367.68 1821.29 2380.86 1819.34C2398.93 1816.41 2495.12 1772.96 2499.02 1668.47C2504.88 1534.17 2377.44 1387.69 2151.37 1389.15ZM475.586 1954.09C403.809 2032.7 302.735 2062.49 259.766 2037.1C213.379 2010.24 231.441 1894.52 319.825 1811.02C373.535 1760.24 443.36 1713.37 489.258 1684.56C499.512 1678.21 515.137 1668.94 533.692 1657.7C536.621 1655.75 538.575 1654.77 538.575 1654.77C541.993 1652.82 545.899 1650.38 549.805 1647.94C582.52 1767.08 551.27 1871.57 475.586 1954.09ZM1000.49 1597.16C975.586 1658.19 922.852 1814.93 891.114 1806.14C863.765 1798.82 847.168 1680.16 885.738 1562.98C905.269 1503.89 946.773 1433.58 971.187 1406.23C1010.74 1362.29 1053.71 1347.64 1064.45 1365.71C1077.15 1389.15 1016.11 1559.07 1000.49 1597.16ZM1433.59 1804.19C1422.85 1809.56 1413.09 1813.46 1408.69 1810.54C1405.27 1808.59 1413.08 1801.26 1413.08 1801.26C1413.08 1801.26 1467.28 1743.16 1488.76 1716.3C1500.97 1700.68 1515.62 1682.62 1531.25 1662.1V1667.96C1531.25 1738.27 1463.87 1785.14 1433.59 1804.19ZM1767.57 1728.02C1759.76 1722.16 1760.74 1704.09 1787.1 1647.45C1797.36 1624.99 1820.8 1587.39 1861.32 1551.75C1866.21 1566.39 1869.14 1580.55 1868.65 1593.74C1868.16 1681.63 1805.66 1714.34 1767.57 1728.02Z" fill="#CF649A"/>
</g>
<defs>
<clipPath id="clip0_29_31">
<rect width="2500" height="1875" fill="white" transform="translate(0 312)"/>
</clipPath>
</defs>
</svg>
