<svg width="2500" height="2500" viewBox="0 0 2500 2500" fill="none" xmlns="http://www.w3.org/2000/svg">
<g clip-path="url(#clip0_29_31)">
<path d="M176.976 1250C176.976 1672.77 422.655 2038.12 778.931 2211.26L269.447 815.334C208.373 952.099 176.862 1100.22 176.976 1250ZM1966.07 1196.1C1966.07 1064.11 1918.66 972.692 1878 901.546C1823.85 813.566 1773.1 739.062 1773.1 651.082C1773.1 552.898 1847.57 461.5 1952.46 461.5C1957.2 461.5 1961.68 462.086 1966.3 462.359C1776.28 288.264 1523.11 181.976 1245.05 181.976C871.91 181.976 543.63 373.422 352.652 663.395C377.709 664.147 401.32 664.664 421.386 664.664C533.094 664.664 706.027 651.121 706.027 651.121C763.61 647.723 770.396 732.285 712.882 739.101C712.882 739.101 655.016 745.907 590.628 749.276L979.595 1906.19L1213.33 1205.18L1046.92 749.246C989.409 745.878 934.922 739.072 934.922 739.072C877.369 735.693 884.116 647.693 941.669 651.092C941.669 651.092 1118.06 664.645 1223 664.645C1334.71 664.645 1507.65 651.092 1507.65 651.092C1565.26 647.693 1572.04 732.256 1514.51 739.072C1514.51 739.072 1456.52 745.878 1392.25 749.246L1778.24 1897.39L1884.77 1541.39C1930.94 1393.66 1966.08 1287.56 1966.08 1196.11L1966.07 1196.1ZM1263.79 1343.43L943.329 2274.62C1041.3 2303.48 1142.91 2318.13 1245.05 2318.13C1369.42 2318.13 1488.7 2296.63 1599.73 2257.59C1596.77 2252.92 1594.22 2248 1592.13 2242.88L1263.79 1343.43ZM2182.24 737.578C2186.83 771.598 2189.43 808.118 2189.43 847.401C2189.43 955.789 2169.19 1077.62 2108.22 1229.96L1781.97 2173.23C2099.5 1988.07 2313.07 1644.05 2313.07 1250.03C2313.09 1064.33 2265.67 889.712 2182.24 737.578ZM1245.05 5C558.541 5 0 563.502 0 1250C0 1936.59 558.541 2495.07 1245.05 2495.07C1931.53 2495.07 2490.15 1936.59 2490.15 1250C2490.14 563.502 1931.53 5 1245.05 5ZM1245.05 2438C590.032 2438 57.0845 1905.07 57.0845 1250C57.0845 594.983 590.003 62.0845 1245.05 62.0845C1900.05 62.0845 2432.94 594.983 2432.94 1250C2432.94 1905.07 1900.05 2438 1245.05 2438Z" fill="#464342"/>
</g>
<defs>
<clipPath id="clip0_29_31">
<rect width="2500" height="2490" fill="white" transform="translate(0 5)"/>
</clipPath>
</defs>
</svg>
